<svg xmlns="http://www.w3.org/2000/svg" viewBox="0 0 32 40" fill="none" x="0px" y="0px"><path d="M18.5938 5.58674L19.7024 5.2896L20.6038 8.5866L18.9702 9.05414L16.5894 9.69209C14.989 10.1209 14.0393 11.7659 14.4681 13.3663L15.4037 16.8581L15.4166 16.91L15.5223 17.3659L15.6063 17.766C15.6185 17.8281 15.6297 17.8878 15.6401 17.9452L15.6914 18.2617L15.7089 18.3991C15.725 18.541 15.7152 18.7347 15.6795 18.9804L15.6241 19.3001C15.6129 19.3575 15.6005 19.417 15.5872 19.4786L15.4945 19.873C15.477 19.9429 15.4585 20.0149 15.4389 20.0889L15.3089 20.558L15.1541 21.077L14.9744 21.6458C14.8854 21.9209 14.7668 22.1855 14.6207 22.435L11.9475 27.0013C11.5289 27.7162 11.7691 28.6351 12.4841 29.0537C13.1989 29.4723 14.1178 29.2322 14.5364 28.5173L17.6023 23.2815L17.8146 22.8927C18.1531 22.2538 18.4245 21.665 18.6288 21.1264L18.6288 21.2965C18.6288 21.624 18.5885 21.9503 18.5089 22.268L17.096 27.9083C16.8947 28.7119 17.3829 29.5265 18.1865 29.7279C18.9901 29.9293 19.8047 29.4411 20.0061 28.6375L21.5537 22.4615C21.6219 22.1895 21.6786 21.9148 21.7236 21.638C21.9927 19.9857 21.9613 18.4313 21.6293 16.9747L21.6063 16.8799C21.595 16.801 21.5789 16.7219 21.5577 16.643L21.3189 15.7517L21.2207 15.3702L20.7437 13.5969L20.7422 13.5994L20.2614 11.8052L22.4904 11.1674C23.4822 10.8836 24.0612 9.85475 23.789 8.85968L22.5286 4.25055C22.31 3.45144 21.4851 2.98079 20.686 3.19932C20.1473 3.34663 19.7579 3.76949 19.6282 4.27425L18.2555 4.64222C18.4058 4.93778 18.5204 5.2545 18.5938 5.58674Z" fill="black"/><path d="M14.6877 9.45265C16.3446 9.45265 17.6877 8.1095 17.6877 6.45265C17.6877 4.79579 16.3446 3.45265 14.6877 3.45265C13.031 3.45265 11.6879 4.79559 11.6877 6.45227C11.6877 6.78216 11.741 7.1 11.8394 7.39689C12.235 8.59112 13.3608 9.45265 14.6877 9.45265Z" fill="black"/><path d="M6.54596 8.81481L10.872 7.65627L10.8049 7.4177C10.7451 7.17615 10.7072 6.92595 10.6935 6.66932L4.8394 8.23754C4.57267 8.30901 4.41438 8.58318 4.48585 8.84992L4.61526 9.33288C4.77388 9.92486 5.25335 10.3764 5.85378 10.4993L5.96941 10.5229C6.07451 10.5445 6.18317 10.5412 6.28678 10.5134C6.6554 10.4147 6.87415 10.0358 6.77538 9.66715L6.54596 8.81481Z" fill="black"/><text x="0" y="47" fill="#000000" font-size="5px" font-weight="bold" font-family="'Helvetica Neue', Helvetica, Arial-Unicode, Arial, Sans-serif">Created by SeungJun</text><text x="0" y="52" fill="#000000" font-size="5px" font-weight="bold" font-family="'Helvetica Neue', Helvetica, Arial-Unicode, Arial, Sans-serif">from the Noun Project</text></svg>