<svg xmlns="http://www.w3.org/2000/svg" xmlns:xlink="http://www.w3.org/1999/xlink" version="1.1" x="0px" y="0px" viewBox="0 0 90 112.5" enable-background="new 0 0 90 90" xml:space="preserve"><path d="M80.651,40.001c0,0-8.315-4.926-25.442-4.626c0,0-14.792,1.156-22.501,11.95c0,0-3.708,4.734-11.708,7.249v7.43  c2,0.15,4.383,1.279,4.383,2.668c0,1.49-2.451,2.698-5.325,2.698c-2.874,0-5.48-1.208-5.48-2.698c0-1.017,1.422-1.892,2.422-2.353  v-6.966c0,0.175-1.539,0.335-2.482,0.452c0,0-13.384,0.386-13.77,10.022c0,0-0.332,8.48,13.16,11.95c0,0,23.542,3.084,41.659-2.698  c0,0,28.05-6.869,32.009-18.228C88.787,53.052,90,44.474,80.651,40.001z"/><polyline points="22,10 22,64 19,64 19,10 "/><path d="M22,13v10.811c0,0,6.681,2.099,13.521-2.698c0,0,2.469-3.084,9.145-3.277c0,0-3.37-4.144-14.548-2.216  c0,0-3.117,1.638-8.117-2.602"/><text x="0" y="105" fill="#000000" font-size="5px" font-weight="bold" font-family="'Helvetica Neue', Helvetica, Arial-Unicode, Arial, Sans-serif">Created by Nick Holroyd</text><text x="0" y="110" fill="#000000" font-size="5px" font-weight="bold" font-family="'Helvetica Neue', Helvetica, Arial-Unicode, Arial, Sans-serif">from the Noun Project</text></svg>