<svg xmlns="http://www.w3.org/2000/svg" version="1.1" viewBox="-5.0 -10.0 110.0 135.0">
 <path d="m83.262 15.68c0.67188-1.3203 0.39844-2.3594 0.058593-2.9883-2.8086-5.2109-11.16-2.3398-11.512-2.2188-0.039063 0.011719-0.078125 0.039063-0.10938 0.050782-3.5703-2.1914-7.7812-3.4609-12.27-3.4609-8.5312 0-16.289 4.5508-20.469 11.922-2.3398-2.1992-5.1719-4.1914-7.0898-3.3086-2.0508 0.94141-3.7109 3.3398-3.6992 5.3398 0 1.25 0.64844 2.2383 1.75 2.7188 2.7695 1.2188 4.8203 2.1094 6.3398 2.75-0.23828 1.3516-0.35938 2.7305-0.35938 4.1094s0.12891 2.8711 0.39062 4.2812c0.35156 1.8906 0.92188 3.7109 1.6992 5.4219l-0.12891 1.1484c-1.3281-0.33984-2.6914-0.57031-4.0391-0.69141l1.0117-9.4102c0.039062-0.33984-0.070313-0.67188-0.28125-0.92969-2.1016-2.4805-7.3086-8.0898-10.301-6.7188-2.0508 0.94141-3.7109 3.3398-3.6992 5.3398 0 1.25 0.64844 2.2383 1.75 2.7188 5.5703 2.4492 8.2188 3.5586 9.5781 3.9883l-0.53125 4.8984h-0.10156-0.64844c-3.2109 0.058594-5.6289 1.9688-5.7383 4.5508l-0.14844 3.5195-1.4805 1.9688c-0.48047 0.64062-1.5703 2.7188-2.3906 4.3516-2.7617 5.4609-4.2812 11.301-4.5 17.379-0.089844 2.3398 1.3516 4.6211 3.6602 6.1289-1.0898 2.0391-1.3008 4.4297-0.55078 6.6484l0.83984 2.5c0.73828 2.2109 2.8086 3.6992 5.1406 3.6992h1.5117c1.0508 0 1.9102-0.85938 1.9102-1.9102v-0.71875c2.4609 0.17969 7.1992 0.48047 9.4883 0.21875 2.9297-0.32812 4.4297-3.5508 5-5.1719l5.5117-0.32031c1.0703-0.058594 2.1406 0.23828 3.0117 0.85938 0.019531 0.011719 0.039062 0.03125 0.058593 0.039062l12.512 7.7617c0.76953 0.53125 1.6719 0.78906 2.5703 0.78906 1.2188 0 2.4297-0.48047 3.3008-1.4219l2.0898-2.2188c3.3594-3.5508 4.5391-5.4883 4.3516-7.1719-0.16016-1.5117-1.3984-2.3398-2.3906-3.0195-1.0586-0.71875-2.25-0.96875-3.4414-0.73828-1.6289 0.32812-2.9219 1.4805-3.6914 2.3516l-8.1797-5.5703 1.7188-6.6914c0.41016 0.050781 0.82812 0.078125 1.2617 0.078125 3.7617 0 6.8984-1.9805 8.7109-5.4492 2.8516-0.64844 4.9297-3.1992 4.9297-6.1914 0-2.8008-1.8281-5.1914-4.3516-6.0312 6.9609-4.0898 11.641-11.648 11.641-20.289 0-4.1914-1.1016-8.1211-3.0312-11.531 1.6094-1.1406 2.7812-2.2891 3.3281-3.3789zm-52.352 5.8086c-0.14844-0.070312-0.28125-0.14844-0.28125-0.48828 0-0.94141 0.98047-2.4883 2.2617-3.0781 0.039063-0.011719 0.078125-0.019531 0.12891-0.019531 0.96875 0 4 2.3398 6.9219 5.6914l-0.19141 1.6406c-1.5898-0.60156-4.9414-2.0117-8.8398-3.7305zm8.5508 6.2305-0.76953 6.5781c-0.21875-1.2188-0.32812-2.4609-0.32812-3.6992 0-1.0586 0.078125-2.1289 0.23828-3.1719 0.32813 0.12109 0.62109 0.21875 0.85938 0.30078zm-16.18 1.7812c-0.14844-0.070312-0.28125-0.14844-0.28125-0.48828 0-0.94141 0.98047-2.4883 2.2617-3.0781 0.039062-0.011719 0.078125-0.019532 0.12891-0.019532 0.96875 0 4.0117 2.3398 6.9297 5.6914l-0.17969 1.6406c-1.5781-0.60156-4.9414-2.0117-8.8594-3.7383zm4.0273 15.809c0.050781-1.2383 1.4492-2.1602 3.3203-2.1914h0.64844c0.10156-0.011719 0.21094-0.011719 0.30859-0.011719 2.6094 0 5.2891 0.46875 7.7812 1.3594 1.4609 0.51953 2.5 1.5195 2.75 2.5391-0.32031-0.03125-0.64844 0.058594-0.92188 0.28906-0.03125 0.019531-2.7188 2.3086-6.0195 2.4805-3.7383 0.19141-6.7305-0.85156-8.0117-1.3906l0.12891-3.0781zm14.832 4.3711c0.050781 0.23047 0.10938 0.44922 0.19922 0.67187 0.87891 2.3281 2.8281 8.5781 1.9688 16.172-1.4297 12.641-5.5312 13.77-8.4883 13.52-0.87891-0.070313-1.9883-0.23047-3.3008-0.46875-3.6719-11.949 3.9297-25.371 5.3984-27.789 1.8984-0.57031 3.3984-1.5117 4.2188-2.1016zm-23.352 22.832c0.21094-5.7188 1.6406-11.23 4.2383-16.359 1.2617-2.4883 1.9609-3.7109 2.1719-3.9883l1.1094-1.4688c1.4297 0.60156 4.3008 1.5703 7.9688 1.5703 0.17188 0 0.35156 0 0.53125-0.011719-2.5508 4.6602-7.6914 15.91-4.9805 26.77-1.7383-0.37109-3.7109-0.83984-5.8906-1.3984-3.0117-0.76953-5.2188-2.9688-5.1406-5.1094zm48.012 10.887c0.26953 0.19141 0.60938 0.25 0.92969 0.19141 0.32031-0.058594 0.60938-0.26172 0.78906-0.53125 0.35938-0.55078 1.5898-2.0195 2.8906-2.2812 0.55078-0.10938 1.0391 0 1.5703 0.35938 0.69922 0.48047 1.2891 0.89844 1.3281 1.25 0.058594 0.53906-0.53125 1.8789-3.6914 5.2188l-2.1016 2.2188c-0.69922 0.73828-1.8594 0.85938-2.6992 0.26953-0.019531-0.011719-0.039062-0.03125-0.058594-0.039062l-12.512-7.7617c-1.3203-0.92188-2.9297-1.3711-4.5391-1.2812l-6.3594 0.37109c-0.53125 0.03125-0.98047 0.39844-1.1211 0.92188-0.26953 1.0312-1.4297 4.0195-3.1602 4.2188-2.3516 0.26172-7.9609-0.14063-9.6211-0.28125-0.53125-0.039063-1.0586 0.14062-1.4492 0.5-0.39062 0.35937-0.60938 0.87109-0.60938 1.4102v0.76172h-0.96875c-1.2695 0-2.3984-0.80859-2.8086-2.0195l-0.83984-2.5c-0.53906-1.5898-0.37891-3.3086 0.42188-4.7695 0.35938 0.12891 0.73828 0.25 1.1289 0.35156 2.4219 0.62109 5.3906 1.3281 8.0508 1.8516h0.03125c1.5703 0.30078 3.0391 0.53125 4.2188 0.62891 0.28125 0.019531 0.55078 0.039063 0.82031 0.039063 8.5312 0 9.8711-11.781 10.32-15.73 0.92188-8.1211-1.1719-14.809-2.1094-17.309-0.089844-0.23828-0.12891-0.46875-0.12891-0.69922 0.96875 0.78906 2 1.5117 3.1016 2.1484 1.1406 0.66016 2.3203 1.2188 3.5508 1.6797-2.2891 1.3789-3.1094 4.3516-1.8086 6.7109 0.42969 0.78125 3.7383 6.5312 9.0312 8.5312l-1.9297 7.5195c-0.12891 0.5 0.070312 1.0312 0.5 1.3203l9.8516 6.6992zm6.4102-26.488c0 1.9805-1.4805 3.6406-3.4414 3.8711-0.42969 0.050781-0.80078 0.32031-0.98047 0.71094-0.78125 1.7188-2.6992 4.6016-6.7617 4.6016-5.9805 0-10.07-7.1289-10.52-7.9492-0.67969-1.2305-0.23047-2.7891 1.0117-3.4688 0.39062-0.21875 0.82031-0.32031 1.2305-0.32031 0.89844 0 1.7812 0.48047 2.25 1.3203 0.76953 1.3711 3.5195 5.2891 6.0312 5.2891 0.85938 0 1.4414-0.39062 1.9219-1.3086 0.33984-0.64844 1.4219-3.3711 1.6992-4.1016 0.011718-0.019532 0.019531-0.050782 0.03125-0.070313 0.58984-1.5 2.0195-2.4688 3.6211-2.4688 2.1484 0 3.8984 1.75 3.8984 3.8984zm-15.312-2.8398c0.51172 0.03125 1.0195 0.050782 1.5312 0.050782 1.5 0 2.9688-0.14844 4.3984-0.42188-0.14844 0.25-0.28125 0.51172-0.39062 0.78906-0.011719 0.03125-0.03125 0.058594-0.039062 0.089844-0.48828 1.2383-1.3281 3.3398-1.5898 3.8711-0.80078-0.30859-2.5508-2.0117-3.6602-3.9805-0.078126-0.14062-0.16016-0.26953-0.25-0.39844zm22.59-23.48c0 11.621-9.4492 21.07-21.07 21.07-3.7188 0-7.3789-0.98047-10.578-2.8398-3.6484-2.1211-6.5312-5.2383-8.3398-8.9414l1.9414-16.539c0.039063-0.33984-0.058594-0.67969-0.28125-0.94141-0.37891-0.44922-0.85938-0.98828-1.3984-1.5781 3.6602-6.9688 10.789-11.289 18.66-11.289 7.0391 0 13.289 3.4805 17.109 8.8086-5.75 3.3086-15.66 6.7891-23.629 7.8984-0.67188 0.089844-1.1406 0.71875-1.0508 1.3906 0.089844 0.62109 0.60938 1.0586 1.2188 1.0586 0.058594 0 0.10938 0 0.17188-0.011719 7.9688-1.1094 18.281-4.5586 24.602-8.2812 1.6797 3.0195 2.6406 6.5 2.6406 10.199zm0.57031-16.02c-0.37891 0.73828-1.2305 1.5703-2.4414 2.4414-1.2305-1.7383-2.6914-3.3086-4.3398-4.6484 2.1094-0.44141 5.6484-0.78906 6.8789 1.5 0.039062 0.078125 0.14062 0.26172-0.089844 0.71094z"/>
 <path d="m65.449 32.191c0 3.2773-4.918 3.2773-4.918 0 0-3.2812 4.918-3.2812 4.918 0"/>
 <path d="m77.32 28.129c0 3.2812-4.9219 3.2812-4.9219 0 0-3.2773 4.9219-3.2773 4.9219 0"/>
 <path d="m73.398 33.852c0-2.1719-3.4883-1.6016-3.4883-1.6016l0.39844 4.2891s3.0898-0.51172 3.0898-2.6914z"/>
 <path d="m75.16 36.91c-0.57812-0.35156-1.3398-0.17188-1.6914 0.42188-1.8594 3.0781-7.3906 1.8984-7.4688 1.8789-0.66016-0.14844-1.3203 0.26953-1.4688 0.92969s0.26953 1.3203 0.92969 1.4688c0.12109 0.03125 1.3594 0.30078 2.9688 0.30078 2.3516 0 5.4883-0.57031 7.1406-3.3086 0.35156-0.57812 0.17188-1.3398-0.42187-1.6914z"/>
<text x="0.0" y="117.5" font-size="5.0" font-weight="bold" font-family="Arbeit Regular, Helvetica, Arial-Unicode, Arial, Sans-serif" fill="#000000">Created by seoyoung shin</text><text x="0.0" y="122.5" font-size="5.0" font-weight="bold" font-family="Arbeit Regular, Helvetica, Arial-Unicode, Arial, Sans-serif" fill="#000000">from Noun Project</text></svg>